<?xml version="1.0" encoding="utf-8"?>
<!-- Generator: Adobe Illustrator 16.0.0, SVG Export Plug-In . SVG Version: 6.00 Build 0)  -->
<!DOCTYPE svg PUBLIC "-//W3C//DTD SVG 1.1//EN" "http://www.w3.org/Graphics/SVG/1.1/DTD/svg11.dtd">
<svg version="1.1" id="Layer_1" xmlns="http://www.w3.org/2000/svg" xmlns:xlink="http://www.w3.org/1999/xlink" x="0px" y="0px"
	 width="100px" height="100px" viewBox="0 0 100 100" enable-background="new 0 0 100 100" xml:space="preserve">
<g>
	<path fill="#FFFFFF" d="M21.26,59.369c0.673,0,1.363-0.046,2.064-0.135c5.831,12.523,17.373,21.082,30.645,21.082
		c19.125,0,34.686-17.754,34.686-39.576c0-1.858-0.141-3.768-0.439-6.007l-0.213-1.598H19.938l-0.002,0.014l-2.372-0.007
		c-1.979-0.009-3.958-0.017-5.935,0.013l0.028,1.841l-0.03-1.841c-2.375,0.039-4.321,2.08-4.335,4.551l0,0c0,0.001,0,0.002,0,0.003
		l0,0l0,0c-0.02,3.083-0.016,6.167,0.012,9.252l0.038-0.001c0,0.031,0,0.062,0,0.092l-0.021,0.005
		c0.007,0.028,0.014,0.056,0.021,0.084c0,0.083,0,0.167,0,0.25h0.061C9.125,54.852,14.424,59.369,21.26,59.369z M23.182,36.818
		h61.574c0.146,1.409,0.216,2.683,0.216,3.922c0,19.792-13.907,35.894-31.003,35.894c-17.096,0-31.004-16.102-31.004-35.894
		C22.964,39.518,23.037,38.223,23.182,36.818z M10.975,37.729c0.002-0.486,0.392-0.884,0.714-0.889l0,0
		c1.949-0.031,3.902-0.022,5.862-0.014l1.951,0.005c-0.131,1.37-0.219,2.685-0.219,3.91c0,5.264,0.924,10.282,2.566,14.88
		c-5.369,0.231-9.431-3.093-10.824-8.977c-0.022-2.828-0.029-5.656-0.013-8.482h-0.036c0.002-0.144,0-0.288,0-0.431l-1.841-0.012
		L10.975,37.729z"/>
	<path fill="#FFFFFF" d="M70.755,25.677c0.954,0,1.738-0.783,1.738-1.739v-7c0-0.957-0.784-1.739-1.738-1.739
		c-0.956,0-1.739,0.782-1.739,1.739v7C69.016,24.894,69.799,25.677,70.755,25.677z"/>
	<path fill="#FFFFFF" d="M37.59,25.899c0.957,0,1.739-0.782,1.739-1.739v-12.75c0-0.957-0.782-1.739-1.739-1.739
		s-1.739,0.782-1.739,1.739v12.75C35.851,25.117,36.633,25.899,37.59,25.899z"/>
	<path fill="#FFFFFF" d="M54.166,25.899c0.957,0,1.738-0.782,1.738-1.739V5.887c0-0.957-0.783-1.739-1.738-1.739
		c-0.957,0-1.738,0.782-1.738,1.739V24.16C52.428,25.117,53.209,25.899,54.166,25.899z"/>
	<path fill="#FFFFFF" d="M88.281,87.799H20.518c-0.957,0-1.739,0.781-1.739,1.738s0.782,1.738,1.739,1.738h67.764
		c0.957,0,1.739-0.781,1.739-1.738S89.238,87.799,88.281,87.799z"/>
</g>
</svg>
