<?xml version="1.0" encoding="utf-8"?>
<!-- Generator: Adobe Illustrator 16.0.0, SVG Export Plug-In . SVG Version: 6.00 Build 0)  -->
<!DOCTYPE svg PUBLIC "-//W3C//DTD SVG 1.1//EN" "http://www.w3.org/Graphics/SVG/1.1/DTD/svg11.dtd">
<svg version="1.1" id="Layer_1" xmlns="http://www.w3.org/2000/svg" xmlns:xlink="http://www.w3.org/1999/xlink" x="0px" y="0px"
	 width="100px" height="100px" viewBox="0 0 100 100" enable-background="new 0 0 100 100" xml:space="preserve">
<g>
	<path fill-rule="evenodd" clip-rule="evenodd" fill="#FFFFFF" d="M49.5,21.881c-14.287,0-28.574,0.006-42.86-0.005
		c-3.174-0.002-5.142-1.74-5.298-4.593c-0.175-3.259,1.897-5.347,5.331-5.349c10.228-0.004,20.454-0.003,30.68-0.002
		c18.295,0,36.59,0.002,54.885,0.001c3.26,0,5.294,1.724,5.433,4.616c0.158,3.324-1.812,5.325-5.311,5.328
		C78.072,21.886,63.787,21.881,49.5,21.881z"/>
	<path fill-rule="evenodd" clip-rule="evenodd" fill="#FFFFFF" d="M49.502,41.567c14.337,0,28.675-0.004,43.012,0.004
		c3.138,0.001,5.132,1.903,5.162,4.87c0.03,3.079-1.931,5.051-5.143,5.053c-25.743,0.016-51.489,0.014-77.233,0.016
		c-2.982,0.001-5.962,0.018-8.943-0.016c-3.023-0.033-5.001-1.979-5.008-4.866c-0.009-3.043,1.891-5.043,4.988-5.049
		C20.725,41.552,35.113,41.567,49.502,41.567z"/>
	<path fill-rule="evenodd" clip-rule="evenodd" fill="#FFFFFF" d="M33.456,71.193c9.093,0,18.185-0.017,27.278,0.012
		c2.508,0.009,4.286,1.486,4.769,3.788c0.491,2.352-0.495,4.667-2.527,5.591c-0.768,0.35-1.679,0.532-2.527,0.532
		c-18.03,0.024-36.06,0.021-54.092,0.004c-3-0.002-4.973-1.959-5.004-4.87c-0.032-3.022,1.903-5.038,4.981-5.049
		C15.374,71.175,24.414,71.193,33.456,71.193z"/>
	<path fill-rule="evenodd" clip-rule="evenodd" fill="#FFFFFF" d="M80.33,76.299c0-2.674-0.009-5.347,0.004-8.021
		c0.012-2.527,1.912-3.729,4.04-2.351c4.054,2.624,8.026,5.379,11.948,8.197c1.744,1.252,1.754,2.789,0.021,4.062
		c-3.93,2.891-7.934,5.69-11.971,8.431c-1.979,1.347-4.245,0.114-4.074-2.302c0.187-2.661,0.044-5.343,0.044-8.017
		C80.338,76.299,80.334,76.299,80.33,76.299z"/>
</g>
</svg>
