<?xml version="1.0" encoding="utf-8"?>
<!-- Generator: Adobe Illustrator 16.0.0, SVG Export Plug-In . SVG Version: 6.00 Build 0)  -->
<!DOCTYPE svg PUBLIC "-//W3C//DTD SVG 1.1//EN" "http://www.w3.org/Graphics/SVG/1.1/DTD/svg11.dtd">
<svg version="1.1" id="Layer_1" xmlns="http://www.w3.org/2000/svg" xmlns:xlink="http://www.w3.org/1999/xlink" x="0px" y="0px"
	 width="100px" height="100px" viewBox="0 0 100 100" enable-background="new 0 0 100 100" xml:space="preserve">
<g>
	<path fill="#FFFFFF" d="M15.459,26.182h69.834c6.525,0,11.833-5.308,11.833-11.833c0-6.524-5.308-11.832-11.833-11.832H15.459
		c-0.009,0-0.017,0.001-0.026,0.001c-0.009,0-0.017-0.001-0.026-0.001c-6.496,0-11.781,5.285-11.781,11.78
		c0,0.009,0.001,0.017,0.001,0.026s-0.001,0.017-0.001,0.026C3.626,20.874,8.935,26.182,15.459,26.182z M15.434,5.634
		c4.765,0.014,8.638,3.895,8.638,8.662c0,4.778-3.887,8.665-8.664,8.665c-4.77,0-8.648-3.873-8.663-8.639
		C6.759,9.538,10.648,5.648,15.434,5.634z M85.294,5.633c4.806,0,8.717,3.91,8.717,8.715c0,4.806-3.911,8.717-8.717,8.717H23.248
		c2.411-2.159,3.94-5.285,3.94-8.769c0-3.427-1.481-6.509-3.826-8.664H85.294z"/>
	<path fill="#FFFFFF" d="M85.294,35.995H15.459c-6.525,0-11.833,5.308-11.833,11.832c0,6.525,5.308,11.833,11.833,11.833h68.087
		c0.587,0.092,1.186,0.152,1.799,0.152c6.495,0,11.781-5.284,11.781-11.78c0-0.035-0.006-0.068-0.006-0.102
		c0-0.035,0.006-0.069,0.006-0.104C97.127,41.302,91.819,35.995,85.294,35.995z M85.294,56.543H83.76
		c-4.022-0.746-7.079-4.276-7.079-8.511c0-4.778,3.886-8.665,8.665-8.665c4.741,0,8.604,3.832,8.659,8.562
		C93.949,52.687,90.064,56.543,85.294,56.543z M15.459,56.543c-4.806,0-8.716-3.911-8.716-8.716c0-4.806,3.91-8.716,8.716-8.716
		h62.213c-2.512,2.163-4.109,5.355-4.109,8.921c0,3.346,1.411,6.365,3.66,8.511H15.459z"/>
	<path fill="#FFFFFF" d="M85.294,72.352H15.459c-6.525,0-11.833,5.308-11.833,11.83c0,6.525,5.308,11.834,11.833,11.834h69.834
		c6.525,0,11.833-5.309,11.833-11.834C97.127,77.659,91.819,72.352,85.294,72.352z M15.81,92.898c-4.778,0-8.665-3.887-8.665-8.665
		c0-4.775,3.887-8.662,8.665-8.662s8.665,3.887,8.665,8.662C24.475,89.012,20.588,92.898,15.81,92.898z M85.294,92.898H23.765
		c2.346-2.154,3.827-5.234,3.827-8.665c0-3.481-1.529-6.607-3.94-8.766h61.643c4.806,0,8.717,3.908,8.717,8.714
		S90.1,92.898,85.294,92.898z"/>
</g>
</svg>
