<?xml version="1.0" encoding="utf-8"?>
<!-- Generator: Adobe Illustrator 16.0.0, SVG Export Plug-In . SVG Version: 6.00 Build 0)  -->
<!DOCTYPE svg PUBLIC "-//W3C//DTD SVG 1.1//EN" "http://www.w3.org/Graphics/SVG/1.1/DTD/svg11.dtd">
<svg version="1.1" id="Layer_1" xmlns="http://www.w3.org/2000/svg" xmlns:xlink="http://www.w3.org/1999/xlink" x="0px" y="0px"
	 width="100px" height="100px" viewBox="0 0 100 100" enable-background="new 0 0 100 100" xml:space="preserve">
<g id="Overview_1_">
	<g>
		<path fill="#FFFFFF" d="M49.77,1.716c-26.701,0-48.424,21.723-48.424,48.424S23.068,98.564,49.77,98.564
			s48.424-21.723,48.424-48.424S76.471,1.716,49.77,1.716z M49.77,95.301c-24.901,0-45.16-20.258-45.16-45.16
			c0-24.902,20.259-45.161,45.16-45.161c24.902,0,45.16,20.259,45.16,45.161C94.93,75.043,74.672,95.301,49.77,95.301z"/>
		<path fill="#FFFFFF" d="M33.541,34.639H21.945c-1.8,0-3.264,1.464-3.264,3.264v34.039c0,1.8,1.464,3.264,3.264,3.264h11.596
			c1.8,0,3.264-1.464,3.264-3.264V37.902C36.805,36.103,35.341,34.639,33.541,34.639z M33.536,71.941H21.945V37.902h11.596
			L33.536,71.941z"/>
		<path fill="#FFFFFF" d="M55.439,20.323H43.844c-1.8,0-3.264,1.464-3.264,3.264v48.354c0,1.8,1.463,3.264,3.264,3.264h11.596
			c1.801,0,3.264-1.464,3.264-3.264V23.587C58.703,21.787,57.24,20.323,55.439,20.323z M55.435,71.941H43.844V23.587h11.596
			L55.435,71.941z"/>
		<path fill="#FFFFFF" d="M77.729,39.985H66.133c-1.801,0-3.264,1.464-3.264,3.264v28.692c0,1.8,1.463,3.264,3.264,3.264h11.596
			c1.801,0,3.264-1.464,3.264-3.264V43.249C80.992,41.449,79.529,39.985,77.729,39.985z M77.725,71.941H66.133V43.249h11.596
			L77.725,71.941z M77.729,73.573v-1.632h0.001L77.729,73.573z"/>
	</g>
</g>
</svg>
