<?xml version="1.0" encoding="utf-8"?>
<!-- Generator: Adobe Illustrator 16.0.0, SVG Export Plug-In . SVG Version: 6.00 Build 0)  -->
<!DOCTYPE svg PUBLIC "-//W3C//DTD SVG 1.1//EN" "http://www.w3.org/Graphics/SVG/1.1/DTD/svg11.dtd">
<svg version="1.1" id="Layer_1" xmlns="http://www.w3.org/2000/svg" xmlns:xlink="http://www.w3.org/1999/xlink" x="0px" y="0px"
	 width="100px" height="100px" viewBox="0 0 100 100" enable-background="new 0 0 100 100" xml:space="preserve">
<path fill="#FFFFFF" d="M49.5,1.383c-26.881,0-48.75,21.869-48.75,48.75s21.869,48.75,48.75,48.75s48.75-21.869,48.75-48.75
	S76.381,1.383,49.5,1.383z M18.045,83.105c2.771-1.582,9.555-4.357,20.263-8.288c1.992-0.73,2.967-1.091,3.369-1.267
	c0.719-0.317,1.253-0.886,1.548-1.644c0.783-2.022-0.46-5.026-0.717-5.608l-0.133-0.243c-0.237-0.356-5.831-8.766-7.801-11.484
	c-0.555-0.771-1.04-1.144-1.43-1.444c-0.158-0.122-0.323-0.246-0.505-0.427c-2.135-2.112-3.144-3.938-2.841-5.142
	c0.329-1.303,2.242-1.899,2.251-1.902l1.39-0.391l-0.224-1.427c-0.05-0.317-0.092-0.636-0.133-0.955
	c-0.214-2.393-0.312-7.557,2.34-10.627c1.522-1.762,3.724-2.585,6.736-2.49l0.001-0.046l0.052,0.04
	c0.182-0.233,4.532-5.662,11.808-1.839c6.536,3.437,7.29,6.099,7.843,8.041c0.146,0.522,0.285,0.985,0.466,1.393
	c0.441,1,0.479,4.826,0.257,7.796l-0.085,1.312l1.257,0.37c0.021,0.006,2.006,0.627,2.278,1.982
	c0.151,0.748-0.036,2.923-5.018,6.992l0.03,0.038l-6.733,9.131l-0.546,1.099l-0.26,1.341l-0.017,3.717l0.221,1.324l0.195,0.283
	c0.178,0.259,0.523,0.734,0.846,1.019c0.817,0.726,2.271,1.355,3.706,1.604c1.974,0.343,15.898,4.525,20.651,9.413
	C71.136,91.602,60.796,95.737,49.5,95.737C37.312,95.737,26.235,90.923,18.045,83.105z M81.503,82.584
	C75.795,76.66,60.327,72.39,59.012,72.161c-0.895-0.156-1.79-0.554-2.082-0.814c-0.051-0.049-0.104-0.116-0.155-0.183l-0.035-3.405
	l0.075-0.532l0.211-0.452l6.554-8.89c4.367-3.691,6.229-6.887,5.634-9.744c-0.413-1.976-1.96-3.25-3.315-3.936
	c0.111-2.185,0.198-6.36-0.602-8.167c-0.125-0.281-0.209-0.604-0.311-0.962c-0.632-2.223-1.686-5.946-9.455-10.031
	c-6.67-3.512-12.023-1.019-14.743,1.49c-3.294,0.19-5.938,1.403-7.834,3.605c-1.16,1.346-1.917,2.936-2.406,4.562
	c-1.037,1.324-1.286,4.121-0.726,8.382c-1.143,0.597-2.67,1.728-3.167,3.648c-0.631,2.439,0.613,5.225,3.697,8.277
	c0.295,0.292,0.556,0.495,0.811,0.692c0.31,0.238,0.497,0.382,0.773,0.767l1.319-0.949l-1.315,0.954
	c1.803,2.488,6.942,10.198,7.649,11.26c0.45,1.066,0.739,2.401,0.635,2.901c-0.477,0.192-1.673,0.632-3.035,1.132
	c-12.811,4.701-18.76,7.24-21.446,8.996C8.385,72.662,3.896,61.912,3.896,50.133c0-25.146,20.458-45.604,45.604-45.604
	c25.146,0,45.604,20.458,45.604,45.604C95.104,62.82,89.894,74.308,81.503,82.584z"/>
</svg>
