<?xml version="1.0" encoding="utf-8"?>
<!-- Generator: Adobe Illustrator 16.0.0, SVG Export Plug-In . SVG Version: 6.00 Build 0)  -->
<!DOCTYPE svg PUBLIC "-//W3C//DTD SVG 1.1//EN" "http://www.w3.org/Graphics/SVG/1.1/DTD/svg11.dtd">
<svg version="1.1" id="Layer_1" xmlns="http://www.w3.org/2000/svg" xmlns:xlink="http://www.w3.org/1999/xlink" x="0px" y="0px"
	 width="100px" height="100px" viewBox="0 0 100 100" enable-background="new 0 0 100 100" xml:space="preserve">
<g>
	<path fill="#FFFFFF" d="M34.182,24.547c0-2.712-2.206-4.918-4.918-4.918H15.969c-2.712,0-4.918,2.206-4.918,4.918v11.957
		c0,2.712,2.206,4.918,4.918,4.918h13.295c2.712,0,4.918-2.206,4.918-4.918V24.547z M30.903,36.504c0,0.904-0.735,1.64-1.639,1.64
		H15.969c-0.904,0-1.639-0.736-1.639-1.64V24.547c0-0.904,0.735-1.64,1.639-1.64h13.295c0.904,0,1.639,0.736,1.639,1.64V36.504z"/>
	<path fill="#FFFFFF" d="M61.573,24.547c0-2.712-2.206-4.918-4.918-4.918H43.36c-2.712,0-4.918,2.206-4.918,4.918v11.957
		c0,2.712,2.206,4.918,4.918,4.918h13.295c2.712,0,4.918-2.206,4.918-4.918V24.547z M58.294,36.504c0,0.904-0.734,1.64-1.639,1.64
		H43.36c-0.904,0-1.64-0.736-1.64-1.64V24.547c0-0.904,0.736-1.64,1.64-1.64h13.295c0.904,0,1.639,0.736,1.639,1.64V36.504z"/>
	<path fill="#FFFFFF" d="M66.056,24.547v11.957c0,2.712,2.206,4.918,4.918,4.918H84.27c2.712,0,4.918-2.206,4.918-4.918V24.547
		c0-2.712-2.206-4.918-4.918-4.918H70.974C68.262,19.629,66.056,21.835,66.056,24.547z M69.334,24.547c0-0.904,0.735-1.64,1.64-1.64
		H84.27c0.902,0,1.639,0.736,1.639,1.64v11.957c0,0.904-0.736,1.64-1.639,1.64H70.974c-0.904,0-1.64-0.736-1.64-1.64V24.547z"/>
	<path fill="#FFFFFF" d="M33.972,48.537c0-2.712-2.206-4.918-4.918-4.918H15.759c-2.712,0-4.918,2.206-4.918,4.918v11.958
		c0,2.712,2.206,4.918,4.918,4.918h13.295c2.712,0,4.918-2.206,4.918-4.918V48.537z M30.693,60.495c0,0.902-0.736,1.639-1.639,1.639
		H15.759c-0.904,0-1.64-0.736-1.64-1.639V48.537c0-0.903,0.736-1.639,1.64-1.639h13.295c0.903,0,1.639,0.736,1.639,1.639V60.495z"/>
	<path fill="#FFFFFF" d="M61.361,48.537c0-2.712-2.206-4.918-4.918-4.918H43.149c-2.712,0-4.918,2.206-4.918,4.918v11.958
		c0,2.712,2.206,4.918,4.918,4.918h13.294c2.712,0,4.918-2.206,4.918-4.918V48.537z M58.083,60.495c0,0.902-0.734,1.639-1.64,1.639
		H43.149c-0.904,0-1.64-0.736-1.64-1.639V48.537c0-0.903,0.736-1.639,1.64-1.639h13.294c0.905,0,1.64,0.736,1.64,1.639V60.495z"/>
	<path fill="#FFFFFF" d="M88.976,48.537c0-2.712-2.206-4.918-4.918-4.918H70.764c-2.712,0-4.918,2.206-4.918,4.918v11.958
		c0,2.712,2.206,4.918,4.918,4.918h13.294c2.712,0,4.918-2.206,4.918-4.918V48.537z M85.697,60.495c0,0.902-0.736,1.639-1.64,1.639
		H70.764c-0.904,0-1.639-0.736-1.639-1.639V48.537c0-0.903,0.734-1.639,1.639-1.639h13.294c0.903,0,1.64,0.736,1.64,1.639V60.495z"
		/>
	<path fill="#FFFFFF" d="M28.941,67.504H15.647c-2.712,0-4.918,2.206-4.918,4.918v11.957c0,2.712,2.206,4.918,4.918,4.918h13.294
		c2.712,0,4.918-2.206,4.918-4.918V72.422C33.859,69.71,31.653,67.504,28.941,67.504z M30.581,84.379c0,0.904-0.736,1.64-1.64,1.64
		H15.647c-0.904,0-1.639-0.735-1.639-1.64V72.422c0-0.903,0.735-1.64,1.639-1.64h13.294c0.904,0,1.64,0.736,1.64,1.64V84.379z"/>
	<path fill="#FFFFFF" d="M56.333,67.504H43.038c-2.712,0-4.918,2.206-4.918,4.918v11.957c0,2.712,2.206,4.918,4.918,4.918h13.295
		c2.712,0,4.918-2.206,4.918-4.918V72.422C61.251,69.71,59.045,67.504,56.333,67.504z M57.973,84.379c0,0.904-0.736,1.64-1.64,1.64
		H43.038c-0.904,0-1.639-0.735-1.639-1.64V72.422c0-0.903,0.735-1.64,1.639-1.64h13.295c0.903,0,1.64,0.736,1.64,1.64V84.379z"/>
	<path fill="#FFFFFF" d="M83.946,67.504H70.652c-2.713,0-4.919,2.206-4.919,4.918v11.957c0,2.712,2.206,4.918,4.919,4.918h13.294
		c2.712,0,4.918-2.206,4.918-4.918V72.422C88.864,69.71,86.658,67.504,83.946,67.504z M85.585,84.379c0,0.904-0.736,1.64-1.639,1.64
		H70.652c-0.905,0-1.64-0.735-1.64-1.64V72.422c0-0.903,0.734-1.64,1.64-1.64h13.294c0.902,0,1.639,0.736,1.639,1.64V84.379z"/>
	<path fill="#FFFFFF" d="M87.225,5.131V5.126h-7.023v3.279h6.923c5.291,0,9.598,3.989,9.598,8.891v69.576
		c0,4.902-4.307,8.892-9.598,8.892H12.876c-5.292,0-9.597-3.989-9.597-8.892V17.295c0-4.902,4.306-8.891,9.597-8.891h7.312V5.126
		h-7.491v0.009C5.68,5.226,0,10.642,0,17.295v69.576c0,6.711,5.776,12.171,12.876,12.171h74.248c7.1,0,12.876-5.46,12.876-12.171
		V17.295C100,10.617,94.278,5.183,87.225,5.131z"/>
	<rect x="29.246" y="5.126" fill="#FFFFFF" width="41.508" height="3.279"/>
	<path fill="#FFFFFF" d="M24.549,14.005h0.642c1.24,0,2.254-1.014,2.254-2.255V2.505c0-1.24-1.014-2.255-2.254-2.255h-0.642
		c-1.241,0-2.255,1.015-2.255,2.255v9.245C22.294,12.991,23.309,14.005,24.549,14.005z"/>
	<path fill="#FFFFFF" d="M75.246,14.005h0.644c1.239,0,2.255-1.014,2.255-2.255V2.505c0-1.24-1.016-2.255-2.255-2.255h-0.644
		c-1.238,0-2.254,1.015-2.254,2.255v9.245C72.992,12.991,74.008,14.005,75.246,14.005z"/>
</g>
</svg>
