<?xml version="1.0" encoding="utf-8"?>
<!-- Generator: Adobe Illustrator 16.0.0, SVG Export Plug-In . SVG Version: 6.00 Build 0)  -->
<!DOCTYPE svg PUBLIC "-//W3C//DTD SVG 1.1//EN" "http://www.w3.org/Graphics/SVG/1.1/DTD/svg11.dtd">
<svg version="1.1" id="Layer_1" xmlns="http://www.w3.org/2000/svg" xmlns:xlink="http://www.w3.org/1999/xlink" x="0px" y="0px"
	 width="100px" height="100px" viewBox="0 0 100 100" enable-background="new 0 0 100 100" xml:space="preserve">
<path fill-rule="evenodd" clip-rule="evenodd" fill="#FFFFFF" d="M20.983,12.695v-0.683L21.07,11.5l0.257-0.512l0.429-0.597
	l0.429-0.598l0.601-0.597l0.687-0.512l0.771-0.512l1.372-0.854l1.458-0.768l1.458-0.769l1.543-0.683l1.459-0.683l1.629-0.597
	l1.544-0.513l1.629-0.426l1.63-0.513l1.629-0.256l1.63-0.426l1.715-0.256l1.801-0.257l1.63-0.085L48.173,1h1.801h1.629l1.717,0.085
	l1.629,0.085l1.629,0.257l1.631,0.256l1.543,0.256l1.629,0.426l1.545,0.257l1.541,0.511l1.547,0.428l1.457,0.597l1.459,0.597
	l1.457,0.598l1.457,0.684l2.744,1.536L75.275,8l0.602,0.427l0.6,0.428l0.256,0.427l0.43,0.512l0.26,0.512l0.084,0.427v0.598v0.426
	l-0.084,0.427l-0.174,0.342l-0.256,0.512l-0.26,0.428l-0.428,0.427l-0.857,0.853l-1.199,0.769l-1.373,0.767l-1.545,0.768
	l-1.715,0.684l-1.973,0.683l-2.145,0.512l-2.23,0.598l-2.402,0.427l-2.572,0.341l-2.658,0.341l-2.83,0.171l-2.831,0.17h-2.917
	l-2.917-0.085l-2.744-0.17l-2.573-0.257l-2.488-0.255l-2.401-0.427l-2.23-0.512l-2.059-0.512l-1.801-0.598l-1.715-0.683
	l-1.458-0.684l-1.2-0.768l-1.03-0.769l-0.429-0.427l-0.343-0.427l-0.258-0.427l-0.257-0.427l-0.085-0.341L20.983,12.695
	L20.983,12.695z M34.879,36.513l-2.744-0.427l-2.66-0.428l-2.573-0.512l-2.487-0.683l-2.316-0.769l-2.145-0.597l-1.972-0.854
	l-1.887-0.769l-1.715-0.938l-1.373-0.854l-1.372-0.938l-1.115-0.854l-0.858-0.939l-0.6-0.854l-0.171-0.513l-0.172-0.427
	l-0.085-0.427l-0.086-0.427l0.086-0.512l0.085-0.427l0.172-0.342l0.171-0.426l1.115-1.538l1.201-1.536l1.115-1.451l1.372-1.452
	l1.287-1.366l1.373-1.28l1.372-1.195l1.458-1.195l-0.772,0.598l-0.6,0.598l-0.601,0.684l-0.514,0.683l-0.43,0.597l-0.343,0.683
	l-0.515,1.11l-0.256,1.024l-0.172,0.854v0.854l0.085,0.854l0.086,0.939L15.838,22l0.6,0.854l0.772,1.024l0.944,0.939l1.2,0.938
	l1.373,0.854l1.544,0.853l1.887,0.769l2.059,0.682l2.229,0.598l2.573,0.512l2.831,0.341l3.088,0.256l3.431,0.086l4.116-0.086
	l3.774-0.256l3.773-0.427l3.432-0.597l3.258-0.597l3.09-0.769l2.83-0.854l2.658-0.769l1.889-0.683l1.887-0.683l1.715-0.683
	l1.543-0.684l1.459-0.767l1.371-0.684l1.201-0.768l1.115-0.769l0.943-0.683l0.855-0.768l0.689-0.683l0.512-0.683l0.43-0.683
	l0.26-0.683l0.17-0.683v-0.598v-0.427l-0.17-0.513l-0.26-0.512l-0.342-0.511l1.715,1.622l1.629,1.622l1.545,1.793l1.459,1.792
	l0.514,1.024l0.43,1.11l0.342,1.196l0.086,0.427v0.512v0.939l-0.17,0.938l-0.346,1.025l-0.514,1.025l-0.686,1.109l-0.857,1.024
	l-1.117,1.025l-1.285,1.024l-1.545,1.025l-1.885,0.939l-2.145,0.768l-2.488,0.769l-2.66,0.768l-3.086,0.598l-3.43,0.512
	l-3.775,0.342l-2.057,0.17L60.18,38.39h-4.203l-4.201-0.17l-4.203-0.341l-3.945-0.342l-3.432-0.342L34.879,36.513L34.879,36.513z
	 M19.011,68.78l-1.63-0.683l-1.543-0.683l-1.63-0.94l-1.458-0.768l-1.543-0.939l-1.458-1.023L8.462,62.72l-1.286-1.023l-1.201-1.111
	l-1.03-1.194l-1.03-1.111l-0.857-1.194L2.372,55.89l-0.6-1.109l-0.429-1.196L1.086,52.39L1,50.77v-1.708l0.086-1.963l0.085-2.049
	L1.257,46.5l0.258,1.537l0.428,1.451l0.6,1.536l0.687,1.452l0.858,1.45l1.029,1.451l1.116,1.365l1.286,1.367l1.459,1.28l1.543,1.281
	l1.801,1.107l1.886,1.111l1.973,1.024l2.145,0.853l2.23,0.854l2.573,0.77l2.487,0.598l2.402,0.512l2.316,0.513l2.314,0.34
	l2.402,0.257l2.315,0.171l2.401,0.084l2.488-0.084l2.573-0.085l2.745-0.256l2.917-0.427l3-0.427l3.258-0.598l3.432-0.598l3.689-0.77
	l3.086-0.767l2.918-0.77l2.742-0.768l2.576-0.854l2.314-0.854l2.23-0.938l2.059-0.855l1.885-0.938l1.715-0.938l1.631-0.938
	l1.373-0.94l1.287-0.938l1.201-0.939l1.027-0.938l1.029-0.938l0.773-0.94l0.771-0.854l0.6-0.938l0.6-0.854l0.43-0.854l0.771-1.536
	l0.516-1.281l0.256-1.28l0.174-0.938v-1.196l-0.088-1.708l-0.086-1.109l-0.256-1.195l0.6,2.816l0.43,2.903l0.256,2.816l0.088,2.903
	v1.792l-0.172,1.793l-0.172,1.109l-0.43,1.28l-0.686,1.536l-0.857,1.623l-1.201,1.792l-0.688,0.939l-0.77,0.939l-0.859,1.024
	L92,63.829l-1.029,0.938l-1.113,0.939l-1.201,0.938L87.285,67.5l-1.461,0.939l-1.543,0.854l-1.629,0.853l-1.803,0.854l-1.971,0.77
	l-1.975,0.767l-2.143,0.6l-2.316,0.683l-2.402,0.512l-2.572,0.512l-2.658,0.429l-2.83,0.254l-3.004,0.258l-3.086,0.171l-1.887,0.084
	l-2.059-0.084l-2.145-0.171l-2.229-0.172l-2.401-0.256l-2.401-0.342l-2.488-0.427l-2.487-0.512l-5.06-1.025l-2.488-0.683
	l-2.401-0.597l-2.401-0.683l-2.23-0.77l-2.144-0.768L19.011,68.78L19.011,68.78z M47.83,92.34l2.916-0.084l2.745-0.17l2.658-0.171
	l2.572-0.342l2.402-0.341l2.318-0.513l2.227-0.513l2.145-0.513l1.973-0.597l1.975-0.77l1.801-0.684l1.715-0.683l1.629-0.767
	l1.631-0.853l1.459-0.855l1.371-0.854l1.287-0.853l1.201-0.938l2.145-1.794l1.799-1.706l1.631-1.622l1.285-1.537l1.031-1.365
	l0.771-1.195l0.6-1.023l-0.773,1.449L91.486,74.5l-0.857,1.281l-0.943,1.278l-0.943,1.282l-1.029,1.28l-1.117,1.279l-1.027,1.195
	l-1.117,1.11l-1.199,1.109l-1.201,1.109L80.68,86.45l-1.115,0.94l-1.459,0.938l-1.285,0.939l-1.373,0.854l-1.457,0.854l-1.459,0.769
	l-1.457,0.768l-1.459,0.685l-1.543,0.597l-1.545,0.598l-1.545,0.512l-1.629,0.514l-1.543,0.426l-1.631,0.341l-1.715,0.342
	l-1.629,0.258l-1.717,0.254l-1.715,0.087l-1.713,0.084l-1.717,0.087l-2.745-0.087l-2.658-0.255l-2.66-0.341l-2.487-0.429
	l-2.487-0.597l-2.487-0.769l-2.402-0.854l-2.315-1.023l-2.316-1.111l-2.145-1.194l-2.144-1.28l-2.058-1.451l-1.972-1.452
	l-1.888-1.536l-1.886-1.794l-1.63-1.79l0.943,0.938l0.943,0.853l1.201,0.77l1.029,0.769l2.316,1.367l2.23,1.107l2.401,1.025
	l2.402,0.939l2.315,0.768l2.401,0.598l2.316,0.512l2.316,0.429l2.144,0.34L40.796,92l1.974,0.086l1.801,0.17L47.83,92.34
	L47.83,92.34z M48.945,82.61l4.03-0.514l3.861-0.596l3.688-0.6l3.432-0.767l3.174-0.77l3.002-0.854l2.744-0.77l2.656-0.937
	l2.402-1.024l2.318-0.94l2.057-1.109l1.887-1.023l1.803-1.109l1.543-1.024l1.457-1.111l1.373-1.11l1.115-1.108l1.115-1.025
	l0.941-1.024l0.859-1.109l0.686-1.023l0.686-1.024l0.516-0.94l0.428-0.937l0.773-1.709l0.428-1.45l0.344-1.195l0.172-0.77
	l-0.258,1.794l-0.342,1.792l-0.43,1.792l-0.43,1.794l-0.6,1.707l-0.514,1.792l-0.688,1.537l-0.771,1.707l-0.516,0.938l-0.598,1.109
	l-0.773,1.025l-0.945,1.11l-0.941,1.194l-1.117,1.111l-1.285,1.107l-1.373,1.194l-1.459,1.111l-1.541,1.111l-1.717,1.107
	l-1.885,1.111l-1.889,1.023l-2.059,0.939l-2.145,0.938l-2.316,0.768l-2.314,0.769l-2.488,0.684l-2.574,0.598l-2.656,0.426
	l-2.832,0.257l-2.83,0.256l-3,0.086l-3.089-0.086l-3.259-0.17l-3.345-0.343l-3.431-0.513l-3.516-0.683l-3.517-0.938l-3.688-1.023
	l-3.859-1.367l-3.86-1.451l-1.458-0.683l-1.458-0.683l-1.373-0.77l-1.287-0.767l-1.201-0.77l-1.286-0.854l-1.029-0.77l-1.115-0.854
	L9.491,74.5l-1.544-1.707l-1.371-1.707l-0.944-1.537l-0.686-1.536l-0.601-1.538l-0.601-1.45L3.23,63.402l-0.515-1.623L2.287,60.16
	l-0.343-1.623L1.601,56.83l0.343,1.28l0.257,1.28l0.343,1.194l0.429,1.194L3.831,64l1.115,1.963l1.115,1.964l1.373,1.792
	l1.372,1.622l1.543,1.452l1.715,1.365l1.63,1.282l1.801,1.107l1.801,0.94l1.887,0.854l1.888,0.854l1.887,0.683l1.972,0.599
	l1.973,0.512l1.887,0.513l1.887,0.341l1.887,0.342l1.887,0.17l1.801,0.257l3.345,0.17l3.003,0.086h2.658l2.059-0.086L48.945,82.61
	L48.945,82.61z M2.801,36L2.63,36.768l-0.086,0.77L2.63,38.39l0.085,0.854l0.258,0.683L3.23,40.61l0.686,1.28l0.858,1.28l1.03,1.11
	l1.201,1.195L8.291,46.5l1.458,1.025l1.63,1.024l1.629,0.939l1.887,0.853l1.801,0.854l1.973,0.77l1.887,0.683l2.059,0.684
	l1.972,0.597l2.059,0.598l3.088,0.598l3.087,0.684l3.088,0.513l3.173,0.425l3.002,0.342L45,57.426l5.661,0.429l4.974,0.17
	l4.031,0.086h3.002l1.717-0.086l2.656-0.341l2.574-0.342l2.4-0.428l2.232-0.342l2.229-0.512l1.887-0.683l1.889-0.513l1.715-0.683
	l1.629-0.683l1.459-0.683l1.371-0.77l1.287-0.767l1.201-0.77l1.027-0.854l0.945-0.77l0.941-0.852l0.773-0.768l0.688-0.769
	l0.598-0.769l0.602-0.768l0.857-1.451l0.686-1.452l0.516-1.195l0.258-1.109l0.17-0.768V38.39v-0.598v-0.853l-0.17-1.11l-0.344-1.365
	l-0.945-2.732l-1.113-2.646l-1.373-2.647l-1.459-2.39l0.602,0.854l0.344,0.853l0.256,0.683l0.172,0.598l0.086,0.854v0.426
	l-0.086,0.939l-0.084,0.854l-0.258,0.938l-0.344,0.854l-0.514,0.768l-0.516,0.769l-0.6,0.768l-0.688,0.768l-0.686,0.768
	l-0.857,0.769l-0.857,0.683l-0.945,0.684l-2.057,1.365l-2.23,1.195l-2.314,1.195l-2.572,1.109l-2.576,1.025l-2.572,0.939
	l-2.572,0.853l-2.488,0.769l-4.889,1.365l-2.916,0.77l-2.914,0.598l-2.832,0.512L50.832,50l-2.83,0.341l-2.745,0.171l-2.658,0.171
	h-2.574l-2.488-0.084l-2.487-0.172l-2.402-0.256l-2.314-0.257l-2.231-0.426l-2.144-0.427l-2.144-0.598l-1.973-0.599l-1.888-0.596
	l-1.8-0.769l-1.716-0.683l-1.543-0.768l-1.629-0.854l-1.373-0.854l-1.201-0.939l-1.201-1.024l-1.029-0.939l-0.857-1.024l-0.772-1.11
	l-0.687-1.024l-0.515-1.11l-0.343-1.024l-0.172-1.195l-0.085-1.024v-1.453l0.172-1.195l0.257-1.109l0.429-1.024l-0.944,1.877
	l-0.772,2.049l-0.686,1.878L2.801,36L2.801,36z"/>
</svg>
