<?xml version="1.0" encoding="utf-8"?>
<!-- Generator: Adobe Illustrator 16.0.0, SVG Export Plug-In . SVG Version: 6.00 Build 0)  -->
<!DOCTYPE svg PUBLIC "-//W3C//DTD SVG 1.1//EN" "http://www.w3.org/Graphics/SVG/1.1/DTD/svg11.dtd">
<svg version="1.1" id="Layer_1" xmlns="http://www.w3.org/2000/svg" xmlns:xlink="http://www.w3.org/1999/xlink" x="0px" y="0px"
	 width="100px" height="100px" viewBox="0 0 100 100" enable-background="new 0 0 100 100" xml:space="preserve">
<g>
	<path fill="#FFFFFF" d="M37.304,20.732l9.499-9.499v40.923c0,0.956,0.782,1.74,1.739,1.74c0.956,0,1.738-0.784,1.738-1.74V11.233
		l9.607,9.608c0.676,0.676,1.783,0.676,2.459,0c0.677-0.676,0.677-1.784,0-2.46L49.78,5.814c-0.003-0.002-0.003-0.008-0.007-0.011
		c-0.135-0.134-0.293-0.22-0.455-0.301c-0.037-0.02-0.064-0.052-0.104-0.069c-0.216-0.089-0.442-0.136-0.672-0.136l0,0
		c0,0,0,0-0.002,0c-0.229,0-0.457,0.047-0.671,0.136c-0.034,0.015-0.058,0.044-0.09,0.061c-0.167,0.082-0.331,0.172-0.469,0.31
		c-0.004,0.003-0.004,0.008-0.008,0.011L34.845,18.273c-0.677,0.676-0.677,1.783,0,2.459C35.521,21.409,36.628,21.409,37.304,20.732
		z"/>
	<path fill="#FFFFFF" d="M72.888,30.566H59.364v0.061l-1.124,0.009c-0.956,0.008-1.731,0.798-1.724,1.753l0.001,0.151
		c0.008,0.956,0.797,1.732,1.753,1.725l1.975-0.017h12.643c2.986,0,5.415,2.43,5.415,5.417v47.178c0,2.984-2.429,5.416-5.415,5.416
		h-47.18c-2.986,0-5.415-2.432-5.415-5.416V39.666c0-2.987,2.429-5.417,5.415-5.417h6.126v0.017l1.983-0.017h3.328v-0.027
		l2.289-0.019c0.957-0.008,1.731-0.797,1.725-1.753l-0.002-0.151c-0.007-0.957-0.797-1.732-1.753-1.725l-2.259,0.018v-0.026H25.708
		c-5.016,0-9.098,4.083-9.098,9.1v47.178c0,5.017,4.082,9.098,9.098,9.098h47.18c5.016,0,9.098-4.081,9.098-9.098V39.666
		C81.985,34.648,77.903,30.566,72.888,30.566z"/>
</g>
</svg>
