<?xml version="1.0" encoding="utf-8"?>
<!-- Generator: Adobe Illustrator 16.0.0, SVG Export Plug-In . SVG Version: 6.00 Build 0)  -->
<!DOCTYPE svg PUBLIC "-//W3C//DTD SVG 1.1//EN" "http://www.w3.org/Graphics/SVG/1.1/DTD/svg11.dtd">
<svg version="1.1" id="Layer_1" xmlns="http://www.w3.org/2000/svg" xmlns:xlink="http://www.w3.org/1999/xlink" x="0px" y="0px"
	 width="100px" height="100px" viewBox="0 0 100 100" enable-background="new 0 0 100 100" xml:space="preserve">
<path fill="#61C640" d="M4.399,40.983L41.754,5.025c2.307-2.226,5.469-3.032,8.415-2.485c2.951-0.547,6.108,0.26,8.415,2.485
	l37.354,35.958c3.812,3.661,3.932,9.769,0.271,13.576c-3.671,3.802-9.779,3.921-13.581,0.26L59.905,32.952V87.12
	c0,5.28-4.315,9.602-9.595,9.602c-5.28,0-9.607-4.321-9.607-9.602V32.687L17.71,54.818c-3.801,3.661-9.91,3.542-13.57-0.26
	C0.479,50.752,0.587,44.644,4.399,40.983"/>
</svg>
