<?xml version="1.0" encoding="utf-8"?>
<!-- Generator: Adobe Illustrator 16.0.0, SVG Export Plug-In . SVG Version: 6.00 Build 0)  -->
<!DOCTYPE svg PUBLIC "-//W3C//DTD SVG 1.1//EN" "http://www.w3.org/Graphics/SVG/1.1/DTD/svg11.dtd">
<svg version="1.1" id="Layer_1" xmlns="http://www.w3.org/2000/svg" xmlns:xlink="http://www.w3.org/1999/xlink" x="0px" y="0px"
	 width="100px" height="100px" viewBox="0 0 100 100" enable-background="new 0 0 100 100" xml:space="preserve">
<path fill="#22AAE0" d="M95.949,58.111L58.584,94.068c-2.307,2.23-5.467,3.032-8.412,2.491c-2.946,0.541-6.108-0.261-8.416-2.491
	L4.402,58.111c-3.807-3.661-3.926-9.77-0.266-13.571c3.667-3.801,9.775-3.92,13.576-0.26l22.722,21.867V11.973
	c0-5.274,4.321-9.596,9.601-9.596c5.277,0,9.599,4.321,9.599,9.596v54.434l22.993-22.126c3.812-3.661,9.921-3.542,13.581,0.26
	C99.87,48.342,99.751,54.45,95.949,58.111"/>
</svg>
