<?xml version="1.0" encoding="utf-8"?>
<!-- Generator: Adobe Illustrator 16.0.0, SVG Export Plug-In . SVG Version: 6.00 Build 0)  -->
<!DOCTYPE svg PUBLIC "-//W3C//DTD SVG 1.1//EN" "http://www.w3.org/Graphics/SVG/1.1/DTD/svg11.dtd">
<svg version="1.1" id="Layer_1" xmlns="http://www.w3.org/2000/svg" xmlns:xlink="http://www.w3.org/1999/xlink" x="0px" y="0px"
	 width="100px" height="100px" viewBox="0 0 100 100" enable-background="new 0 0 100 100" xml:space="preserve">
<path fill="#FFFFFF" d="M41.612,95.327L5.655,57.962c-2.23-2.307-3.032-5.467-2.491-8.413c-0.541-2.946,0.261-6.108,2.491-8.416
	L41.612,3.78c3.661-3.807,9.77-3.926,13.571-0.266c3.801,3.667,3.92,9.775,0.26,13.576L33.576,39.812H87.75
	c5.275,0,9.596,4.321,9.596,9.601c0,5.278-4.32,9.599-9.596,9.599H33.316l22.126,22.993c3.661,3.812,3.542,9.921-0.26,13.581
	C51.382,99.248,45.273,99.129,41.612,95.327"/>
</svg>
