<?xml version="1.0" encoding="utf-8"?>
<!-- Generator: Adobe Illustrator 16.0.0, SVG Export Plug-In . SVG Version: 6.00 Build 0)  -->
<!DOCTYPE svg PUBLIC "-//W3C//DTD SVG 1.1//EN" "http://www.w3.org/Graphics/SVG/1.1/DTD/svg11.dtd">
<svg version="1.1" id="Layer_1" xmlns="http://www.w3.org/2000/svg" xmlns:xlink="http://www.w3.org/1999/xlink" x="0px" y="0px"
	 width="100px" height="100px" viewBox="0 0 100 100" enable-background="new 0 0 100 100" xml:space="preserve">
<path fill="#027BB4" d="M96.965,15.353c0.545-2.815-0.031-5.818-2.075-8.051L94.24,6.589c-2.003-2.196-4.812-2.987-7.537-2.652
	C86.335,3.89,86,3.712,85.612,3.712H35.436c-5.314,0-9.665,4.345-9.665,9.66c0,5.309,4.351,9.655,9.665,9.655h28.782L4.723,80.554
	c-3.569,3.443-3.742,9.271-0.388,12.955l0.649,0.708c3.359,3.68,9.036,3.857,12.6,0.403l60.931-58.911v33.953
	c0,5.173,4.225,9.397,9.392,9.397c5.158,0,9.393-4.225,9.393-9.397V16.978C97.3,16.406,97.069,15.897,96.965,15.353"/>
</svg>
